<svg width="32" height="32" viewBox="0 0 32 32" fill="none" xmlns="http://www.w3.org/2000/svg">
<path d="M18.8532 3.54509C17.9551 0.78116 14.0449 0.781141 13.1468 3.54508L11.2322 9.43769C11.0983 9.84972 10.7144 10.1287 10.2811 10.1287H4.08529C1.17913 10.1287 -0.0292151 13.8475 2.32193 15.5557L7.33449 19.1976C7.68498 19.4522 7.83164 19.9036 7.69776 20.3156L5.78314 26.2082C4.88508 28.9721 8.04851 31.2705 10.3997 29.5623L15.4122 25.9205C15.7627 25.6658 16.2373 25.6658 16.5878 25.9205L21.6003 29.5623C23.9515 31.2705 27.1149 28.9721 26.2169 26.2082L24.3022 20.3156C24.1684 19.9036 24.315 19.4522 24.6655 19.1976L29.6781 15.5557C32.0292 13.8475 30.8209 10.1287 27.9147 10.1287H21.7189C21.2856 10.1287 20.9017 9.84972 20.7678 9.4377L18.8532 3.54509Z" stroke="white" stroke-width="2"/>
</svg>
